<?xml version="1.0" standalone="no"?>
<!DOCTYPE svg PUBLIC "-//W3C//DTD SVG 20010904//EN"
 "http://www.w3.org/TR/2001/REC-SVG-20010904/DTD/svg10.dtd">
<svg version="1.0" xmlns="http://www.w3.org/2000/svg"
 width="512.000000pt" height="512.000000pt" viewBox="0 0 512.000000 512.000000"
 preserveAspectRatio="xMidYMid meet">

<g transform="translate(0.000000,512.000000) scale(0.100000,-0.100000)"
fill="#000000" stroke="none">
<path d="M142 5109 c-49 -14 -118 -88 -132 -141 -26 -93 15 -196 94 -243 35
-20 65 -28 141 -34 83 -7 102 -12 138 -37 83 -59 70 21 237 -1404 104 -890
158 -1315 174 -1382 47 -187 144 -355 289 -495 166 -161 359 -259 577 -292 55
-9 401 -11 1272 -9 l1196 3 44 30 c138 97 118 306 -34 370 -33 13 -171 15
-1177 15 -761 0 -1165 4 -1217 11 -206 28 -385 152 -479 330 -19 37 -35 72
-35 78 0 7 392 11 1348 14 1492 3 1379 -2 1570 70 129 48 240 118 347 219 141
133 241 294 294 473 11 39 61 296 111 572 97 538 105 620 75 738 -29 113 -81
203 -169 291 -89 88 -142 122 -256 162 l-75 27 -1787 3 -1788 2 0 33 c-1 65
-31 174 -71 257 -82 165 -252 297 -434 335 -78 16 -203 18 -253 4z m4308
-1081 c55 -28 95 -79 111 -139 11 -41 5 -83 -75 -530 -48 -266 -96 -515 -107
-554 -47 -162 -165 -305 -314 -382 -153 -79 -55 -74 -1565 -71 l-1345 3 -97
820 c-53 451 -97 832 -97 848 l-1 27 1723 0 1723 0 44 -22z"/>
<path d="M1365 833 c-121 -44 -205 -118 -258 -231 -30 -63 -32 -74 -32 -177 0
-105 2 -114 34 -180 133 -270 485 -327 690 -110 201 212 140 546 -123 675 -62
31 -80 35 -165 37 -73 3 -108 -1 -146 -14z"/>
<path d="M3490 830 c-165 -61 -273 -200 -287 -371 -21 -254 202 -477 456 -456
176 15 322 132 375 302 28 88 19 211 -21 297 -44 93 -109 160 -201 205 -68 34
-83 38 -171 40 -77 3 -107 -1 -151 -17z"/>
</g>
</svg>
